<?xml version="1.0" encoding="UTF-8"?>
<svg id="Layer_1" data-name="Layer 1" xmlns="http://www.w3.org/2000/svg" viewBox="0 0 323 310.81">
  <defs>
    <style>
      .cls-1 {
        fill: #ff0180;
      }
    </style>
  </defs>
  <path class="cls-1" d="M173.99,41.71c60.28,2.75,39.21,144.07,59.59,184.8,3.66,9.98,9.95,13.99,15.14,2.34,8.77-19.69,10.07-64.54,26.59-77.25,25.2-21.38,61.54,29.27,32.85,29.89-8.84-1.3-17.4-26.32-25.59-4.52-7.73,20.57-9.4,66.4-30.19,77.47-59.14,23.1-43.88-136.22-61.28-170.29-2.36-8.15-9.44-31.08-20.14-15.93-22.93,57.72-19.81,125.21-31.19,186.03-2.95,18.2-7.96,63.55-36.27,55.64-20.47-5.72-22.91-54.11-27.1-71.98-1.8-7.67-4.81-24.36-14.17-25.84-16.08-2.56-37.82,2.35-54.34-.84-10.69-2.06-10.7-17.26,1-18.32,13.22-1.2,43.28-1.42,56.26.04,28.53,3.21,31.13,58.9,36,80.23,23.29,78.81,32.15-175.67,43.62-190.19,3.93-14.92,11.45-38.52,29.21-41.29Z"/>
  <path class="cls-1" d="M282.62.72c2.61,17.27,6.34,30.13,22.22,39.24,5.88,3.37,10.85,3.28,15.43,5.53,7.82,3.84-3.37,5.93-5.94,6.97-15.49,6.26-25.29,14.92-29.29,31.69-.84,3.52-.8,15.16-4.58,15.51-5.26.48-5.22-12.46-6.7-17.18-4.18-13.33-14.08-23.1-26.85-28.41-3.11-1.3-11.31-1.64-11.29-5.44l1.24-2.41c16.15-3.78,29.58-10.53,35.96-26.68,1.84-4.66,2.99-18.48,7.07-19.54l2.72.72Z"/>
  <path class="cls-1" d="M71.81,119.83c3.1-.26,22.96,24.02,26.25,27.87,0,1.92-22.22,25.92-26.23,27.79-2.91,0-22.01-23.17-25.05-26.98l1.71-3.66,23.32-25.02Z"/>
  <path class="cls-1" d="M187.29,263.56c2.18-.56,4.17,2.26,5.53,3.7,1.91,2.01,14.79,16.49,14.79,17.64-2.62,3.24-16.88,21.46-19.56,21.47l-19.57-21.47c2.66-2.85,16.94-20.86,18.81-21.33Z"/>
</svg>