<?xml version="1.0" encoding="UTF-8"?>
<svg id="Layer_1" data-name="Layer 1" xmlns="http://www.w3.org/2000/svg" viewBox="0 0 1082.7 310.81">
  <defs>
    <style>
      .cls-1 {
        fill: #ff0180;
      }

      .cls-2 {
        fill: #fff;
      }
    </style>
  </defs>
  <g>
    <path class="cls-1" d="M173.99,41.71c60.28,2.75,39.21,144.07,59.59,184.8,3.66,9.98,9.95,13.99,15.14,2.34,8.77-19.69,10.07-64.54,26.59-77.25,25.2-21.38,61.54,29.27,32.85,29.89-8.84-1.3-17.4-26.32-25.59-4.52-7.73,20.57-9.4,66.4-30.19,77.47-59.14,23.1-43.88-136.22-61.28-170.29-2.36-8.15-9.44-31.08-20.14-15.93-22.93,57.72-19.81,125.21-31.19,186.03-2.95,18.2-7.96,63.55-36.27,55.64-20.47-5.72-22.91-54.11-27.1-71.98-1.8-7.67-4.81-24.36-14.17-25.84-16.08-2.56-37.82,2.35-54.34-.84-10.69-2.06-10.7-17.26,1-18.32,13.22-1.2,43.28-1.42,56.26.04,28.53,3.21,31.13,58.9,36,80.23,23.29,78.81,32.15-175.67,43.62-190.19,3.93-14.92,11.45-38.52,29.21-41.29Z"/>
    <path class="cls-1" d="M282.62.72c2.61,17.27,6.34,30.13,22.22,39.24,5.88,3.37,10.85,3.28,15.43,5.53,7.82,3.84-3.37,5.93-5.94,6.97-15.49,6.26-25.29,14.92-29.29,31.69-.84,3.52-.8,15.16-4.58,15.51-5.26.48-5.22-12.46-6.7-17.18-4.18-13.33-14.08-23.1-26.85-28.41-3.11-1.3-11.31-1.64-11.29-5.44l1.24-2.41c16.15-3.78,29.58-10.53,35.96-26.68,1.84-4.66,2.99-18.48,7.07-19.54l2.72.72Z"/>
    <path class="cls-1" d="M71.81,119.83c3.1-.26,22.96,24.02,26.25,27.87,0,1.92-22.22,25.92-26.23,27.79-2.91,0-22.01-23.17-25.05-26.98l1.71-3.66,23.32-25.02Z"/>
    <path class="cls-1" d="M187.29,263.56c2.18-.56,4.17,2.26,5.53,3.7,1.91,2.01,14.79,16.49,14.79,17.64-2.62,3.24-16.88,21.46-19.56,21.47l-19.57-21.47c2.66-2.85,16.94-20.86,18.81-21.33Z"/>
  </g>
  <g>
    <path class="cls-2" d="M346.06,65.54h32.91v121.98h25.01v-121.98h32.91v219.39h-32.91v-64.5h-25.01v64.5h-32.91V65.54Z"/>
    <path class="cls-2" d="M481.87,122.96v161.96h-28.58V122.96h28.58Z"/>
    <path class="cls-2" d="M498.26,65.54h88.85v32.91h-28.08v186.48h-32.91V98.45h-27.86v-32.91Z"/>
    <path class="cls-2" d="M606.42,246.97c-1.02-4.09-1.57-8.15-1.65-12.18-.08-4.02-.11-8.08-.11-12.18v-9.65h32.91c0,2.63-.08,6.14-.22,10.53-.15,4.39.11,8.7.77,12.94.66,4.24,1.86,7.94,3.62,11.08,1.75,3.15,4.61,4.72,8.56,4.72,2.49,0,4.53-.73,6.14-2.19,1.61-1.46,2.92-3.29,3.95-5.48,1.02-2.19,1.76-4.5,2.19-6.91s.66-4.57.66-6.47c0-5.12-.51-9.69-1.54-13.71-1.02-4.02-2.52-7.75-4.5-11.19-1.97-3.44-4.43-6.73-7.35-9.87-2.93-3.14-6.22-6.4-9.87-9.76-2.63-2.49-5.26-4.97-7.9-7.46-2.63-2.49-5.19-5.12-7.68-7.9-13.16-14.92-19.75-32.25-19.75-52,0-6.87.99-13.53,2.96-19.96,1.97-6.43,4.9-12.18,8.78-17.22,3.87-5.05,8.67-9.1,14.37-12.18s12.29-4.61,19.75-4.61c5.7,0,10.97,1.03,15.8,3.07,4.83,2.05,9.1,4.83,12.83,8.34,3.73,3.51,6.91,7.57,9.54,12.18,2.63,4.61,4.61,9.54,5.92,14.81.73,3.22,1.21,6.4,1.43,9.54.22,3.15.33,6.33.33,9.54v14.7h-32.91c0-2.49.07-5.52.22-9.1.14-3.58.03-7.16-.33-10.75-.37-3.58-1.06-6.98-2.08-10.2-1.03-3.22-2.63-5.56-4.83-7.02-.88-.58-1.79-1.1-2.74-1.54-.95-.44-2.01-.66-3.18-.66-2.63,0-4.75.73-6.36,2.19-1.61,1.46-2.93,3.26-3.95,5.38-1.02,2.12-1.72,4.39-2.08,6.8-.37,2.41-.55,4.65-.55,6.69,0,4.97.55,9.32,1.65,13.05s2.67,7.21,4.72,10.42c2.05,3.22,4.46,6.25,7.24,9.1,2.78,2.85,5.92,5.89,9.43,9.1,5.56,4.97,10.53,9.95,14.92,14.92,4.39,4.97,8.12,10.2,11.19,15.69s5.41,11.45,7.02,17.88c1.61,6.44,2.41,13.68,2.41,21.72,0,4.97-.55,9.95-1.65,14.92-1.1,4.97-2.78,9.65-5.05,14.04-2.27,4.39-5.16,8.38-8.67,11.96-3.51,3.59-7.61,6.47-12.29,8.67-2.93,1.32-5.89,2.38-8.89,3.18-3,.81-6.11,1.21-9.32,1.21-5.7,0-10.97-.99-15.8-2.96-4.83-1.97-9.1-4.68-12.83-8.12-3.73-3.43-6.88-7.49-9.43-12.18-2.56-4.68-4.5-9.65-5.81-14.92Z"/>
    <path class="cls-2" d="M713.91,284.93V65.54h37.74c7.9,0,15.14,1.32,21.72,3.95,6.58,2.63,12.25,6.33,17,11.08,4.75,4.75,8.45,10.42,11.08,17,2.63,6.58,3.95,13.82,3.95,21.72v47.39c0,7.9-1.32,15.14-3.95,21.72-2.63,6.58-6.33,12.25-11.08,17s-10.42,8.45-17,11.08c-6.58,2.63-13.82,3.95-21.72,3.95h-4.83v64.5h-32.91ZM753.84,98.45h-7.02v89.07c3.8,0,7.13-.18,9.98-.55,2.85-.36,5.34-1.21,7.46-2.52,2.12-1.32,3.87-3.22,5.27-5.7,1.39-2.49,2.38-5.78,2.96-9.87v-49.58c0-6-1.57-10.89-4.72-14.7-3.15-3.8-7.79-5.85-13.93-6.14Z"/>
    <path class="cls-2" d="M822.95,65.54h75.03v32.91h-42.12v89.07h30.06v32.91h-30.06v31.59h42.12v32.91h-75.03V65.54Z"/>
    <path class="cls-2" d="M915.53,65.54h32.91v186.48h41.9v32.91h-74.81V65.54Z"/>
    <path class="cls-2" d="M1007.89,65.54h32.91v186.48h41.9v32.91h-74.81V65.54Z"/>
  </g>
  <path class="cls-1" d="M465.66,65.39c2.18-.56,4.17,2.26,5.53,3.7,1.91,2.01,14.79,16.49,14.79,17.64-2.62,3.24-16.88,21.46-19.56,21.47l-19.57-21.47c2.66-2.85,16.94-20.86,18.81-21.33Z"/>
</svg>