<svg width="170" height="153" viewBox="0 0 170 153" fill="none" xmlns="http://www.w3.org/2000/svg">
<circle cx="85" cy="77" r="50" fill="#D9D9D9"/>
<circle cx="17.5" cy="74.5" r="17.5" fill="#FF0080"/>
<circle cx="152.5" cy="74.5" r="17.5" fill="#FF0080"/>
<circle cx="52.5" cy="17.5" r="17.5" fill="#FF0080"/>
<circle cx="117.5" cy="17.5" r="17.5" fill="#FF0080"/>
<circle cx="117.5" cy="135.5" r="17.5" fill="#FF0080"/>
<circle cx="52.5" cy="135.5" r="17.5" fill="#FF0080"/>
<line x1="39.3074" y1="26.7354" x2="21.3074" y2="58.7354" stroke="#FF0080" stroke-width="3"/>
<line x1="20.4276" y1="90.7408" x2="40.4276" y2="123.741" stroke="#FF0080"/>
<line x1="21.2828" y1="90.2225" x2="41.2828" y2="123.223" stroke="#FF0080" stroke-width="3"/>
<line x1="69" y1="138.5" x2="101" y2="138.5" stroke="#FF0080" stroke-width="3"/>
<line x1="128.724" y1="124.212" x2="149.724" y2="90.2118" stroke="#FF0080" stroke-width="3"/>
<line x1="132.286" y1="25.2283" x2="153.286" y2="60.2283" stroke="#FF0080" stroke-width="3"/>
<line x1="65" y1="9.5" x2="103" y2="9.5" stroke="#FF0080" stroke-width="3"/>
<path d="M118.5 35C120.798 35 123.074 34.5473 125.197 33.6679C127.32 32.7884 129.249 31.4994 130.874 29.8744C132.499 28.2493 133.788 26.3202 134.668 24.197C135.547 22.0738 136 19.7981 136 17.5C136 15.2019 135.547 12.9262 134.668 10.803C133.788 8.67984 132.499 6.75066 130.874 5.12563C129.249 3.50061 127.32 2.21156 125.197 1.33211C123.074 0.45265 120.798 -2.00909e-07 118.5 0L118.5 17.5V35Z" fill="#CE66FF"/>
<path d="M135 74.5C135 76.7981 135.453 79.0738 136.332 81.197C137.212 83.3202 138.501 85.2493 140.126 86.8744C141.751 88.4994 143.68 89.7884 145.803 90.6679C147.926 91.5473 150.202 92 152.5 92C154.798 92 157.074 91.5473 159.197 90.6679C161.32 89.7884 163.249 88.4994 164.874 86.8744C166.499 85.2493 167.788 83.3202 168.668 81.197C169.547 79.0738 170 76.7981 170 74.5L152.5 74.5H135Z" fill="#CE66FF"/>
<path d="M117.5 118C115.202 118 112.926 118.453 110.803 119.332C108.68 120.212 106.751 121.501 105.126 123.126C103.501 124.751 102.212 126.68 101.332 128.803C100.453 130.926 100 133.202 100 135.5C100 137.798 100.453 140.074 101.332 142.197C102.212 144.32 103.501 146.249 105.126 147.874C106.751 149.499 108.68 150.788 110.803 151.668C112.926 152.547 115.202 153 117.5 153L117.5 135.5V118Z" fill="#CE66FF"/>
<path d="M52.5 35C54.7981 35 57.0738 34.5473 59.197 33.6679C61.3202 32.7884 63.2493 31.4994 64.8744 29.8744C66.4994 28.2493 67.7884 26.3202 68.6679 24.197C69.5473 22.0738 70 19.7981 70 17.5C70 15.2019 69.5473 12.9262 68.6679 10.803C67.7884 8.67984 66.4994 6.75066 64.8744 5.12563C63.2493 3.50061 61.3202 2.21156 59.197 1.33211C57.0738 0.45265 54.7981 -2.00909e-07 52.5 0L52.5 17.5V35Z" fill="#CE66FF"/>
<path d="M59 64.4615V83.7436" stroke="#FF0080" stroke-width="3" stroke-linecap="round"/>
<path d="M112 64.4615V83.7436" stroke="#FF0080" stroke-width="3" stroke-linecap="round"/>
<path d="M72.25 64.4615V83.7436" stroke="#FF0080" stroke-width="3" stroke-linecap="round"/>
<path d="M98.75 64.4615V83.7436" stroke="#FF0080" stroke-width="3" stroke-linecap="round"/>
<path d="M65.625 57.2307V89.7692" stroke="#FF0080" stroke-width="3" stroke-linecap="round"/>
<path d="M105.375 57.2307V89.7692" stroke="#FF0080" stroke-width="3" stroke-linecap="round"/>
<path d="M78.875 57.2307V89.7692" stroke="#FF0080" stroke-width="3" stroke-linecap="round"/>
<path d="M92.125 57.2307V89.7692" stroke="#FF0080" stroke-width="3" stroke-linecap="round"/>
<path d="M85.5 50V97" stroke="#FF0080" stroke-width="3" stroke-linecap="round"/>
<path d="M52.5 118C50.2019 118 47.9262 118.453 45.803 119.332C43.6798 120.212 41.7507 121.501 40.1256 123.126C38.5006 124.751 37.2116 126.68 36.3321 128.803C35.4527 130.926 35 133.202 35 135.5C35 137.798 35.4527 140.074 36.3321 142.197C37.2116 144.32 38.5006 146.249 40.1256 147.874C41.7507 149.499 43.6798 150.788 45.803 151.668C47.9262 152.547 50.2019 153 52.5 153L52.5 135.5V118Z" fill="#CE66FF"/>
<path d="M0 74.5C0 76.7981 0.452651 79.0738 1.33211 81.197C2.21157 83.3202 3.50061 85.2493 5.12563 86.8744C6.75066 88.4994 8.67984 89.7884 10.803 90.6679C12.9262 91.5473 15.2019 92 17.5 92C19.7981 92 22.0738 91.5473 24.197 90.6679C26.3202 89.7884 28.2493 88.4994 29.8744 86.8744C31.4994 85.2493 32.7884 83.3202 33.6679 81.197C34.5473 79.0738 35 76.7981 35 74.5L17.5 74.5H0Z" fill="#CE66FF"/>
</svg>
